#N canvas 536 110 1375 997 10;
#X obj 214 390 dac~;
#N canvas 0 22 806 696 foot 0;
#X obj 451 64 bng 15 250 50 0 empty empty empty 17 7 0 10 -262144 -1
-1;
#X obj 360 284 noise~;
#X obj 498 412 line~;
#X obj 350 531 *~;
#X obj 340 599 *~ 0.5;
#X msg 572 302 1 50 \,;
#X obj 434 286 del 50;
#X msg 488 335 0 50;
#X obj 301 294 osc~ 50;
#X obj 363 331 *~ 0.25;
#X obj 302 331 *~ 2;
#X obj 399 186 t b b;
#X obj 340 632 outlet~;
#X obj 451 18 r footBounce;
#X obj 84 107 r footPosY;
#X obj 138 362 osc~;
#X obj 137 277 + 40;
#X obj 138 307 mtof;
#X obj 200 464 *~ 0.3;
#X obj 138 248 * 100;
#X connect 0 0 11 0;
#X connect 1 0 9 0;
#X connect 2 0 3 1;
#X connect 3 0 4 0;
#X connect 4 0 12 0;
#X connect 5 0 2 0;
#X connect 6 0 7 0;
#X connect 7 0 2 0;
#X connect 8 0 10 0;
#X connect 9 0 3 0;
#X connect 10 0 3 0;
#X connect 11 0 6 0;
#X connect 11 1 5 0;
#X connect 13 0 0 0;
#X connect 14 0 19 0;
#X connect 15 0 18 0;
#X connect 16 0 17 0;
#X connect 17 0 15 0;
#X connect 18 0 12 0;
#X connect 19 0 16 0;
#X restore 300 225 pd foot;
#N canvas 0 22 900 832 chest 0;
#X obj 93 142 tgl 15 0 empty empty empty 17 7 0 10 -262144 -1 -1 1
1;
#X obj 70 239 random 12;
#X obj 68 438 osc~;
#X obj 68 349 mtof;
#X obj 143 242 random 12;
#X obj 141 441 osc~;
#X obj 141 352 mtof;
#X obj 185 39 loadbang;
#X msg 135 96 1;
#X obj 255 456 r myAmp;
#X obj 93 46 r start;
#X obj 67 325 + 0;
#X obj 136 328 + 0;
#X floatatom 237 243 5 0 0 0 - pitchOffset -, f 5;
#X obj 143 280 + 40;
#X obj 70 277 + 40;
#X obj 238 283 * 7;
#X obj 69 406 line~;
#X msg 68 379 \$1 20;
#X obj 146 407 line~;
#X msg 145 380 \$1 20;
#X obj 92 203 metro 20;
#X text 271 243 <<<<< this object is receiving "pitchOffset";
#X obj 74 652 outlet~;
#X obj 202 648 outlet~;
#X obj 66 495 *~;
#X obj 183 518 *~;
#X connect 0 0 21 0;
#X connect 1 0 15 0;
#X connect 2 0 25 0;
#X connect 3 0 18 0;
#X connect 4 0 14 0;
#X connect 5 0 26 0;
#X connect 6 0 20 0;
#X connect 7 0 8 0;
#X connect 8 0 0 0;
#X connect 9 0 25 1;
#X connect 9 0 26 1;
#X connect 10 0 0 0;
#X connect 11 0 3 0;
#X connect 12 0 6 0;
#X connect 13 0 16 0;
#X connect 14 0 12 0;
#X connect 15 0 11 0;
#X connect 16 0 12 1;
#X connect 16 0 11 1;
#X connect 17 0 2 0;
#X connect 18 0 17 0;
#X connect 19 0 5 0;
#X connect 20 0 19 0;
#X connect 21 0 1 0;
#X connect 21 0 4 0;
#X connect 25 0 23 0;
#X connect 26 0 24 0;
#X restore 173 225 pd chest;
#X connect 1 0 0 0;
#X connect 1 0 0 1;
#X connect 2 0 0 0;
#X connect 2 1 0 1;
